<svg xmlns="http://www.w3.org/2000/svg" width="363px" height="500px" viewBox="0 0 1092 1500" preserveAspectRatio="xMidYMid meet">
	<g transform="translate(0, 1500) scale(0.1, -0.1)" fill="#7950f2" stroke="none">
		<path d="M6850 14993 c-57 -21 -60 -50 -26 -219 111 -542 303 -1139 516 -1605
34 -74 73 -158 86 -186 13 -29 21 -53 18 -53 -3 0 -58 13 -123 30 -619 156
-1112 524 -1441 1074 -75 125 -101 144 -149 109 -48 -36 -41 -74 37 -203 221
-365 544 -680 899 -878 214 -120 488 -221 726 -268 l137 -28 52 -95 c80 -150
212 -372 316 -534 52 -81 92 -150 90 -152 -15 -15 -190 -27 -323 -22 -152 6
-253 23 -385 66 -110 37 -300 137 -393 208 -142 109 -149 113 -173 113 -35 0
-64 -34 -64 -74 0 -29 8 -42 53 -81 195 -171 466 -301 743 -355 138 -27 373
-30 516 -6 54 9 104 16 112 16 8 0 66 -69 129 -152 64 -84 163 -210 221 -280
58 -71 102 -128 96 -128 -5 0 -48 22 -94 48 -178 102 -414 151 -494 102 -76
-46 -89 -124 -52 -312 29 -148 66 -256 137 -398 35 -68 63 -127 63 -131 0 -3
-52 -48 -116 -99 -199 -159 -346 -345 -472 -598 -81 -164 -113 -203 -179 -221
-24 -7 -208 -11 -498 -11 l-460 0 -92 40 c-309 133 -658 125 -946 -21 -44 -23
-91 -30 -357 -54 -370 -33 -547 -40 -1010 -40 -488 1 -665 8 -1080 48 -406 38
-585 28 -818 -49 -408 -133 -746 -448 -904 -843 -111 -274 -257 -490 -493
-727 -163 -163 -275 -253 -463 -369 -100 -62 -120 -83 -129 -138 -13 -83 43
-132 188 -161 307 -62 639 -22 898 108 40 21 75 35 78 33 2 -3 -7 -56 -21
-119 -49 -220 -60 -318 -60 -568 -1 -141 4 -279 13 -345 17 -140 11 -163 -74
-280 -170 -233 -267 -535 -251 -784 44 -698 240 -1558 517 -2267 78 -200 127
-263 247 -317 37 -17 67 -21 142 -22 82 0 102 4 152 27 79 37 142 98 181 177
29 60 32 73 32 161 0 56 -11 162 -27 260 -77 465 -95 965 -52 1475 8 99 22
205 30 234 43 152 196 492 314 696 130 228 367 565 396 565 8 0 59 -7 114 -15
502 -75 907 -106 1480 -112 664 -7 1121 19 1683 99 81 11 151 18 154 15 3 -4
0 -73 -7 -154 -28 -347 -30 -983 -4 -1268 29 -321 428 -1854 510 -1962 33 -43
80 -78 128 -93 54 -17 145 -7 198 22 50 27 103 93 118 146 6 24 10 422 10
1172 l0 1135 303 777 302 778 90 58 c145 94 290 215 446 371 168 169 246 263
370 451 235 353 393 766 455 1183 14 91 22 121 35 128 13 6 44 2 104 -16 173
-50 248 -60 445 -59 198 0 310 16 497 70 111 31 348 148 434 213 114 86 179
210 180 341 1 128 -17 181 -119 332 -309 460 -786 852 -1296 1062 -126 52
-325 119 -434 146 -88 21 -93 24 -88 45 28 109 83 382 111 551 l35 207 124
186 c261 392 448 810 560 1256 33 128 76 341 76 372 0 45 -91 71 -123 36 -8
-10 -25 -66 -36 -124 -63 -326 -151 -606 -286 -908 -63 -141 -218 -425 -260
-476 -15 -19 -16 -17 -11 30 34 316 43 1032 18 1355 -36 456 -136 1105 -178
1151 -27 30 -89 26 -111 -7 -16 -25 -15 -34 20 -217 86 -440 129 -848 143
-1333 7 -234 -2 -554 -15 -554 -12 0 -139 100 -211 167 -237 219 -429 518
-530 826 -24 74 -51 101 -96 95 -15 -2 -36 -15 -47 -30 l-21 -28 35 -102 c44
-135 162 -373 245 -495 149 -220 374 -445 572 -572 28 -18 52 -39 52 -47 0
-38 -43 -425 -61 -549 -40 -278 -135 -755 -150 -755 -19 0 -267 302 -443 540
-648 872 -1113 1922 -1322 2985 -33 166 -55 200 -114 178z m1320 -3704 c80
-21 166 -62 236 -110 38 -26 59 -31 170 -44 577 -68 1108 -310 1559 -712 171
-152 414 -445 497 -597 30 -55 33 -69 33 -141 0 -67 -5 -88 -27 -130 -45 -85
-130 -150 -303 -231 -312 -145 -669 -178 -995 -92 -187 50 -225 49 -286 -4
-48 -42 -61 -71 -74 -166 -110 -806 -545 -1503 -1222 -1956 l-123 -82 -310
-795 -310 -794 -5 -1160 c-5 -1086 -6 -1163 -23 -1188 -28 -43 -73 -61 -117
-48 -20 6 -44 19 -53 29 -51 56 -306 992 -431 1577 -71 333 -81 477 -73 1042
6 487 32 796 103 1222 26 153 26 154 6 180 -24 32 -70 39 -101 14 -24 -20 -40
-100 -81 -403 -12 -91 -23 -166 -24 -167 -4 -4 -334 -51 -476 -67 -436 -50
-666 -61 -1240 -61 -605 0 -894 17 -1389 81 -216 27 -243 32 -239 45 2 5 67
76 146 158 120 126 142 154 142 180 0 38 -31 71 -66 71 -21 0 -52 -25 -131
-102 -448 -440 -834 -1046 -1036 -1628 -44 -129 -62 -364 -62 -835 0 -471 20
-729 86 -1095 27 -148 19 -196 -47 -269 -76 -84 -170 -101 -272 -49 -65 33
-92 78 -166 268 -231 598 -393 1262 -465 1905 -42 368 -39 426 24 621 42 129
89 222 181 356 107 156 112 179 89 395 -52 495 37 990 256 1425 16 32 29 67
29 78 0 51 -88 81 -123 42 -17 -18 -101 -195 -132 -276 -17 -43 -28 -55 -102
-103 -157 -103 -326 -168 -502 -193 -99 -15 -362 -8 -440 12 l-55 13 130 87
c308 206 516 413 714 710 84 126 169 284 196 364 53 157 178 347 318 482 224
216 488 337 812 372 84 9 135 7 310 -9 535 -52 607 -55 1199 -55 600 -1 768 6
1185 49 222 23 226 23 312 64 148 71 218 85 408 85 190 0 257 -14 407 -84 l88
-41 520 3 520 3 52 24 c84 37 138 105 225 281 119 238 263 416 473 582 95 75
129 129 122 195 -3 26 -33 99 -76 185 -77 153 -125 310 -138 450 l-6 70 49 -7
c27 -4 83 -16 124 -26z" />
		<path d="M9235 10319 c-45 -40 -62 -95 -47 -148 34 -111 167 -144 247 -61 22
23 29 41 33 83 8 98 -46 157 -145 157 -44 0 -58 -5 -88 -31z" />
		<path d="M5130 1400 l0 -850 75 0 75 0 0 850 0 850 -75 0 -75 0 0 -850z" />
		<path d="M5740 1400 l0 -850 80 0 80 0 0 173 0 173 98 89 c53 50 118 109 143
132 l46 43 243 -305 244 -305 93 0 c51 0 93 2 93 5 0 2 -124 161 -275 352
-151 191 -275 350 -275 354 0 4 112 115 249 246 l249 238 -94 3 -94 3 -357
-328 -358 -327 -3 577 -2 577 -80 0 -80 0 0 -850z" />
		<path d="M4085 1750 c-115 -23 -245 -97 -315 -178 -49 -58 -102 -157 -126
-237 -13 -43 -18 -93 -18 -180 0 -87 5 -137 18 -180 42 -141 129 -257 249
-336 226 -147 604 -121 776 55 l42 43 -44 49 -44 49 -41 -37 c-158 -143 -438
-156 -621 -30 -96 65 -181 213 -181 313 l0 29 506 0 507 0 -7 83 c-9 110 -30
188 -74 272 -72 137 -219 248 -369 280 -73 16 -193 18 -258 5z m198 -130 c81
-13 158 -50 218 -106 73 -69 114 -147 133 -256 l7 -38 -431 0 -430 0 0 24 c0
48 41 153 80 208 96 135 252 196 423 168z" />
		<path d="M7051 750 c-93 -93 13 -252 131 -196 43 21 68 63 68 116 0 34 -6 48
-34 76 -30 30 -40 34 -84 34 -43 0 -55 -5 -81 -30z" />
	</g>
</svg>
